<?xml version="1.0" encoding="utf-8"?>
<!-- Generator: Adobe Illustrator 18.0.0, SVG Export Plug-In . SVG Version: 6.00 Build 0)  -->
<!DOCTYPE svg PUBLIC "-//W3C//DTD SVG 1.1//EN" "http://www.w3.org/Graphics/SVG/1.1/DTD/svg11.dtd">
<svg version="1.1" id="Layer_1" xmlns="http://www.w3.org/2000/svg" xmlns:xlink="http://www.w3.org/1999/xlink" x="0px" y="0px"
	 viewBox="0 0 30 30" enable-background="new 0 0 30 30" xml:space="preserve">
<path opacity="0.75" fill="#39A5DD" enable-background="new    " d="M16.6,27.3h-4.1l5.7-20.6c0,0,0.7-2.4,1.7-2.4h0.9
	c1.6,0,2.8,0,2.8,0l-2.4,6.9L16.6,27.3z"/>
<path fill="#39A5DD" d="M21.1,7.2c0,0,0.1-3-1.2-3h3.6c2,0,2,2.4,2,2.4v20.6h-4.4C21.1,27.3,21.1,7.2,21.1,7.2z"/>
<path fill="#39A5DD" d="M6.7,6.8c0,0,0.3-1.5,1.7-2.6h0.9c1,0,1.7,2.4,1.7,2.4l5.6,20.6h-4.1L6.7,6.8z"/>
<path fill="#F29522" d="M8.4,27.3H4V6.6c0,0,0-2.4,2-2.4h3.6c-1.3,0-1.2,3-1.2,3V27.3z"/>
</svg>
