<?xml version="1.0" encoding="utf-8"?>
<!-- Generator: Adobe Illustrator 19.0.0, SVG Export Plug-In . SVG Version: 6.00 Build 0)  -->
<svg version="1.1" xmlns="http://www.w3.org/2000/svg" xmlns:xlink="http://www.w3.org/1999/xlink" x="0px" y="0px"
	 viewBox="-287 379 36.2 36" style="enable-background:new -287 379 36.2 36;" xml:space="preserve">
<style type="text/css">
	.st0{fill:#FFFFFF;}
	.st1{fill:#FFFFFF;fill-opacity:0.59;}
	.st2{fill:#6EDC18;}
	.st3{fill:#33E4F7;}
</style>
<g id="Layer_2">
	<path class="st0" d="M-263.1,412.7h-13.9c-4.2,0-7.6-3.4-7.6-7.6v-14.1c0-4.2,3.4-7.6,7.6-7.6h13.9c4.2,0,7.6,3.4,7.6,7.6v14.1
		C-255.5,409.3-258.9,412.7-263.1,412.7z"/>
</g>
<g id="Layer_1">
	<g id="XMLID_5_">
	</g>
	<g id="XMLID_54_">
		<path id="XMLID_106_" class="st1" d="M-259.5,381.1c0.1,0,0.1,0,0.2,0C-259.3,381.1-259.4,381.1-259.5,381.1z"/>
		<path id="XMLID_103_" class="st1" d="M-280.3,381.6c0.1-0.1,0.3-0.1,0.4-0.2C-280,381.5-280.2,381.5-280.3,381.6z"/>
		<path id="XMLID_100_" class="st1" d="M-273.8,381h8.4C-268.2,381-271,381-273.8,381z"/>
		<path id="XMLID_97_" class="st1" d="M-279.6,381.3h0.1C-279.5,381.3-279.5,381.3-279.6,381.3z"/>
		<path id="XMLID_94_" class="st1" d="M-260.6,412.8h-2.6C-262.4,412.8-261.5,412.8-260.6,412.8z"/>
		<path id="XMLID_91_" class="st1" d="M-281.4,382.2c0.1,0,0.1-0.1,0.2-0.1C-281.3,382.1-281.3,382.1-281.4,382.2z"/>
		<path id="XMLID_88_" class="st1" d="M-280.9,381.9c0.1-0.1,0.3-0.1,0.4-0.2C-280.6,381.7-280.7,381.8-280.9,381.9z"/>
		<path id="XMLID_85_" class="st1" d="M-284.2,385.7c-0.4,0.8-0.6,1.8-0.6,2.7h0.1v-0.2C-284.7,387.3-284.5,386.4-284.2,385.7z"/>
		<path id="XMLID_82_" class="st1" d="M-252.8,387.9c0-3.5-3-6.5-6.4-6.8c3.6,0.4,6.4,3.4,6.4,7.1v17.4c0,3.4-2.4,6.2-5.5,7
			c3.1-0.6,5.6-3.6,5.6-6.8C-252.7,399.8-252.7,393.8-252.8,387.9z"/>
		<path id="XMLID_79_" class="st1" d="M-281.2,382c0.1,0,0.2-0.1,0.3-0.1C-281,381.9-281.1,382-281.2,382z"/>
		<path id="XMLID_76_" class="st1" d="M-260.6,412.8h0.6c0.6,0,1.1-0.1,1.6-0.2h-0.1C-259.2,412.7-259.9,412.8-260.6,412.8z"/>
		<path id="XMLID_73_" class="st1" d="M-259.5,381.1c-0.2,0-0.3,0-0.5,0h-5.4c1.8,0,3.6,0,5.4,0C-259.9,381-259.7,381-259.5,381.1z"
			/>
		<path id="XMLID_70_" class="st1" d="M-259.3,381.1C-259.2,381.1-259.2,381.1-259.3,381.1C-259.2,381.1-259.2,381.1-259.3,381.1z"
			/>
		<path id="XMLID_67_" class="st1" d="M-280.4,381.6c0.1,0,0.1,0,0.2-0.1C-280.3,381.6-280.4,381.6-280.4,381.6z"/>
		<path id="XMLID_64_" class="st1" d="M-281.4,382.2c-1.3,0.8-2.3,2-2.8,3.5C-283.7,384.2-282.7,383-281.4,382.2z"/>
		<path id="XMLID_58_" class="st1" d="M-273.8,381h-3.8c-0.6,0-1.2,0.1-1.8,0.3c0.4-0.1,0.8-0.2,1.3-0.2
			C-276.7,381.1-275.2,381-273.8,381z"/>
		<path id="XMLID_55_" class="st1" d="M-279.9,381.4c0.1,0,0.2-0.1,0.3-0.1C-279.7,381.4-279.8,381.4-279.9,381.4z"/>
	</g>
	<path id="XMLID_61_" class="st0" d="M-268.8,407.1c2.9-0.9,5.5-3,6.5-5.9c0.8-3.9,0.3-8.6-3.3-10.9c-5.7-3.9-12.9-1.3-19.2-1.9
		v17.2c0,3.9,3.2,7.2,7.2,7.2c0,0,13.5-0.1,13.1-0.1C-265.9,410.8-267.4,409-268.8,407.1z"/>
	<g id="XMLID_20_">
		<g id="XMLID_52_">
			<path id="XMLID_53_" class="st2" d="M-284.8,388.4c0.1-3.7,2.9-7.2,6.7-7.3c6-0.1,12-0.1,18.1-0.1c3.7-0.2,7.2,3,7.3,6.8
				c0.1,6,0.1,11.9,0,17.9c0.1,3.3-2.5,6.3-5.7,6.9c-2,0.3-4,0.2-6,0.1c-1.4-1.9-2.8-3.8-4.2-5.6c2.9-0.9,5.5-3,6.5-5.9
				c0.8-3.9,0.3-8.6-3.3-10.9C-271.3,386.4-278.5,389-284.8,388.4z"/>
		</g>
		<g id="XMLID_21_">
			<g id="XMLID_13_">
				<g id="XMLID_16_">
					<path id="XMLID_10_" class="st3" d="M-272.6,394.7c3,0.6,4.8,5,2,7c-2.9,1.6-6.3,0.5-9.4,0.9c2.4,3.4,4.9,6.8,7.3,10.2
						c-2.2,0-4.4,0.2-6.5-0.2c-3.1-0.7-5.5-3.6-5.5-6.7c-0.1-3.8-0.1-7.5-0.1-11.3C-280.8,394.6-276.6,394.4-272.6,394.7z"/>
				</g>
				<g id="XMLID_18_">
				</g>
			</g>
		</g>
	</g>
</g>
</svg>
