<?xml version="1.0" encoding="UTF-8"?>
<!DOCTYPE svg PUBLIC "-//W3C//DTD SVG 1.1//EN" "http://www.w3.org/Graphics/SVG/1.1/DTD/svg11.dtd">
<!-- Creator: CorelDRAW -->
<svg xmlns="http://www.w3.org/2000/svg" xml:space="preserve" width="300px" height="86px" style="shape-rendering:geometricPrecision; text-rendering:geometricPrecision; image-rendering:optimizeQuality; fill-rule:evenodd; clip-rule:evenodd"
viewBox="0 0 321.383 92.2232"
 xmlns:xlink="http://www.w3.org/1999/xlink">
 <defs>
  <style type="text/css">
   <![CDATA[
    .fil2 {fill:#373435}
    .fil1 {fill:#FEFEFE}
    .fil0 {fill:white}
   ]]>
  </style>
 </defs>
 <g id="Layer_x0020_1">
  <metadata id="CorelCorpID_0Corel-Layer"/>
  <g id="_222639368">
   <path id="_218444776" class="fil0" d="M321.383 82.9707c0,5.10895 -4.14366,9.25244 -9.25244,9.25244l-302.858 0c-5.10895,0 -9.27268,-4.14366 -9.27268,-9.25244l0 -73.7183c0,-5.10895 4.14366,-9.25244 9.27268,-9.25244l302.838 0c5.12902,0 9.25244,4.14366 9.25244,9.25244l0.0200728 73.7183 0 0z"/>
   <path id="_218443744" class="fil1" d="M321.383 82.9707c0,5.10895 -4.14366,9.25244 -9.25244,9.25244l-302.858 0c-5.10895,0 -9.27268,-4.14366 -9.27268,-9.25244l0 -73.7183c0,-5.10895 4.14366,-9.25244 9.27268,-9.25244l302.838 0c5.12902,0 9.25244,4.14366 9.25244,9.25244l0.0200728 73.7183 0 0z"/>
   <g>
    <path id="_218443768" class="fil2" d="M70.5417 45.5987c-0.0603817,-7.78419 6.37615,-11.5657 6.65766,-11.7467 -3.64053,-5.31017 -9.29259,-6.03426 -11.2839,-6.09464 -4.74698,-0.5028 -9.35313,2.83615 -11.7668,2.83615 -2.47402,0 -6.19517,-2.79584 -10.1978,-2.71538 -5.16933,0.0804546 -9.99677,3.07751 -12.6518,7.7238 -5.47108,9.47373 -1.38796,23.3927 3.84175,31.0361 2.61486,3.74122 5.6922,7.92486 9.69502,7.78402 3.9222,-0.160909 5.39062,-2.49409 10.1174,-2.49409 4.68677,0 6.07457,2.49409 10.1577,2.41364 4.20387,-0.0602185 6.85888,-3.76129 9.39328,-7.54266 3.0372,-4.28433 4.24402,-8.52835 4.28433,-8.74964 -0.0806178,-0.0401457 -8.16639,-3.11766 -8.24684,-12.4506z"/>
    <path id="_218443864" class="fil2" d="M62.8179 22.7288c2.11206,-2.63493 3.56024,-6.23531 3.1578,-9.87601 -3.05727,0.140836 -6.87895,2.11206 -9.0713,4.6866 -1.95115,2.27296 -3.681,5.99395 -3.23842,9.51404 3.43947,0.261437 6.95957,-1.72986 9.15191,-4.32464z"/>
    <g>
     <path id="_218444008" class="fil2" d="M127.364 73.879l-5.49115 0 -2.99706 -9.43342 -10.4392 0 -2.85622 9.43342 -5.33024 0 10.3387 -32.1221 6.39638 0 10.3788 32.1221zm-9.39328 -13.3759l-2.71538 -8.38751c-0.281673,-0.864928 -0.824782,-2.87646 -1.62933,-6.05433l-0.100527 0c-0.321818,1.36773 -0.824782,3.37909 -1.52864,6.05433l-2.67524 8.38751 8.64911 0z"/>
     <path id="_218444104" class="fil2" d="M153.915 62.032c0,3.94228 -1.06598,7.05993 -3.21818,9.3329 -1.91084,2.0316 -4.3044,3.05744 -7.14039,3.05744 -3.07751,0 -5.26986,-1.08622 -6.61768,-3.27857l0 12.1488 -5.14926 -0.000163194 0 -24.9414c0,-2.47402 -0.0603817,-5.00842 -0.180982,-7.60304l4.52569 0 0.281673 3.68084 0.100364 0c1.70978,-2.77577 4.32464,-4.14349 7.82449,-4.14349 2.73546,0 5.00842,1.08606 6.8388,3.23842 1.81015,2.13197 2.73546,4.96811 2.73546,8.50828zm-5.24978 0.180982c0,-2.25273 -0.5028,-4.10335 -1.52864,-5.5716 -1.10613,-1.52864 -2.61469,-2.29304 -4.48538,-2.29304 -1.2672,0 -2.41364,0.422509 -3.45955,1.2672 -1.02584,0.844855 -1.70962,1.95098 -2.0316,3.31887 -0.160909,0.643637 -0.241364,1.14644 -0.241364,1.56895l0 3.86182c0,1.68955 0.523036,3.09758 1.54887,4.26426 1.02584,1.16651 2.37349,1.74993 4.02289,1.74993 1.93091,0 3.43947,-0.744164 4.52569,-2.23266 1.10613,-1.50873 1.64907,-3.47995 1.64907,-5.93373z"/>
     <path id="_218444200" class="fil2" d="M180.546 62.032c0,3.94228 -1.06615,7.05993 -3.21835,9.3329 -1.91084,2.0316 -4.30424,3.05744 -7.14039,3.05744 -3.07751,0 -5.26986,-1.08622 -6.61751,-3.27857l0 12.1488 -5.14942 -0.000163194 0 -24.9414c0,-2.47402 -0.0602185,-5.00842 -0.180982,-7.60304l4.52569 0 0.281673 3.68084 0.100527 0c1.70978,-2.77577 4.32464,-4.14349 7.82449,-4.14349 2.73546,0 5.00842,1.08606 6.83864,3.23842 1.81031,2.13197 2.73562,4.96811 2.73562,8.50828zm-5.24978 0.180982c0,-2.25273 -0.5028,-4.10335 -1.52864,-5.5716 -1.10629,-1.52864 -2.59478,-2.29304 -4.46531,-2.29304 -1.2672,0 -2.4138,0.422509 -3.45971,1.2672 -1.02584,0.844855 -1.70962,1.95098 -2.03144,3.31887 -0.161072,0.643637 -0.241364,1.14644 -0.241364,1.56895l0 3.86182c0,1.68955 0.522873,3.09758 1.54871,4.26426 1.02584,1.14644 2.37349,1.74993 4.02289,1.74993 1.93091,0 3.43947,-0.744164 4.52569,-2.23266 1.08606,-1.50873 1.62916,-3.47995 1.62916,-5.93373z"/>
     <path id="_218444296" class="fil2" d="M210.335 64.888c0,2.73546 -0.965455,4.94804 -2.85622,6.67789 -2.09182,1.87069 -5.00842,2.81607 -8.74964,2.81607 -3.45955,0 -6.23531,-0.66371 -8.32713,-1.99129l1.18675 -4.28433c2.25273,1.32758 4.72675,2.01136 7.44213,2.01136 1.93091,0 3.43947,-0.442419 4.52569,-1.30751 1.08622,-0.864764 1.62916,-2.05151 1.62916,-3.49969 0,-1.30751 -0.442419,-2.39373 -1.32742,-3.2988 -0.885164,-0.885001 -2.35342,-1.70962 -4.42517,-2.47402 -5.63182,-2.09198 -8.4479,-5.16933 -8.4479,-9.19206 0,-2.63509 0.985691,-4.78713 2.97698,-6.47684 1.99129,-1.68955 4.60598,-2.53424 7.88471,-2.53424 2.91644,0 5.35031,0.5028 7.3013,1.52864l-1.28711 4.20387c-1.81031,-0.985691 -3.88206,-1.46842 -6.17509,-1.46842 -1.81031,0 -3.23842,0.442582 -4.26426,1.32758 -0.864764,0.784473 -1.28727,1.77 -1.28727,2.91644 0,1.2672 0.502964,2.31311 1.48849,3.13789 0.844855,0.7644 2.4138,1.58902 4.66653,2.47402 2.77577,1.10629 4.8072,2.41364 6.09448,3.90213 1.28727,1.44818 1.95098,3.29864 1.95098,5.53129z"/>
     <path id="_218444392" class="fil2" d="M227.391 54.5897l-5.67229 0 0 11.2437c0,2.85622 1.00576,4.28433 2.99706,4.28433 0.925309,0 1.68971,-0.0804546 2.29304,-0.241364l0.140836 3.90213c-1.00576,0.3822 -2.35342,0.563182 -4.00266,0.563182 -2.0316,0 -3.62062,-0.623401 -4.76706,-1.87053 -1.1466,-1.24713 -1.70978,-3.31887 -1.70978,-6.23531l0 -11.6662 -3.37909 0 0 -3.86198 3.37909 0 0 -4.24402 5.04873 -1.52864 0 5.77282 5.67213 -0.000163194 0 3.88206 0 0z"/>
     <path id="_218444488" class="fil2" d="M252.936 62.1123c0,3.56024 -1.02584,6.47668 -3.05744,8.76971 -2.13197,2.35342 -4.94804,3.51993 -8.48804,3.51993 -3.39933,0 -6.11471,-1.12636 -8.12624,-3.37909 -2.01136,-2.25273 -3.01713,-5.10911 -3.01713,-8.52835 0,-3.58031 1.04591,-6.53706 3.11782,-8.81002 2.09182,-2.29304 4.88766,-3.43947 8.40759,-3.43947 3.39933,0 6.13479,1.12636 8.18646,3.37926 1.99129,2.21258 2.97698,5.02849 2.97698,8.48804zm-5.35031 0.120763c0,-2.11206 -0.462655,-3.94228 -1.38796,-5.47108 -1.08622,-1.83038 -2.61469,-2.75569 -4.62622,-2.75569 -2.05167,0 -3.64069,0.925146 -4.72675,2.75569 -0.925309,1.52864 -1.38796,3.37909 -1.38796,5.55153 0,2.13197 0.462655,3.94228 1.38796,5.47108 1.10613,1.83022 2.655,2.75553 4.66637,2.75553 1.97122,0 3.49986,-0.945382 4.62622,-2.79567 0.985691,-1.54887 1.44835,-3.37942 1.44835,-5.51138z"/>
     <path id="_218444584" class="fil2" d="M269.671 55.2534c-0.5028,-0.100691 -1.04591,-0.140836 -1.62933,-0.140836 -1.81015,0 -3.21818,0.683946 -4.20387,2.05167 -0.844692,1.20682 -1.28727,2.73546 -1.28727,4.566l0 12.1488 -5.14909 0 0 -15.87c0,-2.67524 -0.0603817,-5.10911 -0.140673,-7.30146l4.48538 0 0.180982 4.425 0.140673 0c0.543109,-1.52864 1.40804,-2.75553 2.57471,-3.68084 1.14644,-0.824619 2.39356,-1.24713 3.72115,-1.24713 0.482728,0 0.905073,0.0403089 1.28727,0.100691l0.0200728 4.94804 0 0z"/>
     <path id="_218444680" class="fil2" d="M292.682 61.2072c0,0.925146 -0.0603817,1.68955 -0.181145,2.33335l-15.4476 0c0.0603817,2.29287 0.804546,4.0428 2.23266,5.24962 1.30751,1.08622 2.97698,1.60926 5.04873,1.60926 2.29304,0 4.36478,-0.362127 6.25555,-1.08622l0.804546 3.56024c-2.19251,0.965455 -4.78713,1.42811 -7.76411,1.42811 -3.60038,0 -6.41629,-1.06615 -8.46797,-3.1578 -2.05167,-2.11206 -3.07751,-4.94804 -3.07751,-8.50828 0,-3.49986 0.945382,-6.39638 2.85622,-8.70933 1.99129,-2.47402 4.70668,-3.72115 8.10584,-3.72115 3.33895,0 5.87335,1.24713 7.58313,3.72115 1.36773,1.97089 2.05167,4.40477 2.05167,7.28106zm-4.90789 -1.32758c0.0403089,-1.52864 -0.301746,-2.83598 -1.00576,-3.96251 -0.885001,-1.42811 -2.25273,-2.1522 -4.10318,-2.1522 -1.68955,0 -3.05744,0.704018 -4.10335,2.09198 -0.864764,1.10613 -1.36773,2.45395 -1.52864,4.00266l10.7409 0.0200728 0 0z"/>
    </g>
    <g>
     <path id="_218444800" class="fil2" d="M115.497 30.2717l-2.69531 0 -1.46842 -4.64629 -5.12902 0 -1.40804 4.64629 -2.61486 0 5.08888 -15.7895 3.13789 0 5.08888 15.7895zm-4.62638 -6.5772l-1.32742 -4.12342c-0.140836,-0.422346 -0.402436,-1.40787 -0.804546,-2.97682l-0.0403089 0c-0.160909,0.683782 -0.402273,1.66947 -0.744164,2.97682l-1.30751 4.12342 4.22395 0z"/>
     <path id="_218444896" class="fil2" d="M128.209 18.8872l-4.30424 11.3846 -2.45395 -0.000163194 -4.16373 -11.3846 2.71538 0.000163194 1.95115 6.01402c0.321655,1.00576 0.603328,1.97122 0.824619,2.87646l0.0603817 -0.000163194c0.180982,-0.824619 0.462655,-1.77 0.824782,-2.87629l1.93091 -6.01418 2.61469 0.000163194 0 0z"/>
     <path id="_218444992" class="fil2" d="M137.381 30.2717l-0.181145 -1.30735 -0.0602185 0c-0.7644,1.04591 -1.89076,1.56895 -3.31887,1.56895 -2.0316,0 -3.49986,-1.42811 -3.49986,-3.35902 0,-2.81607 2.43371,-4.26426 6.65766,-4.26426l0 -0.201218c0,-1.5084 -0.804383,-2.25273 -2.37333,-2.25273 -1.12653,0 -2.11206,0.281673 -2.97682,0.844855l-0.523036 -1.66947c1.04591,-0.663873 2.37333,-0.985528 3.9222,-0.985528 2.97682,0 4.46531,1.56878 4.46531,4.70668l0 4.18364c0,1.14644 0.0403089,2.0316 0.160909,2.71538l-2.2728 0.0200728 0 0zm-0.362127 -5.67213c-2.81591,0 -4.22395,0.683782 -4.22395,2.29304 0,1.18675 0.724091,1.77 1.72986,1.77 1.28727,0 2.47402,-0.985528 2.47402,-2.31311l-0.000163194 -1.74993 0.020236 0z"/>
     <path id="_218445088" class="fil2" d="M145.125 17.0166c-0.844855,0 -1.50856,-0.66371 -1.50856,-1.52864 0,-0.864764 0.683782,-1.50856 1.54871,-1.50856 0.864928,0 1.56895,0.623564 1.54887,1.50856 -0.000163194,0.925309 -0.643637,1.52864 -1.58902,1.52864zm1.30735 13.2551l-2.53424 0 0 -11.3846 2.53424 0.000163194 0 11.3844z"/>
     <polygon id="_218445184" class="fil2" points="153.452,30.2717 150.917,30.2717 150.917,13.6575 153.452,13.6575 "/>
     <path id="_218445280" class="fil2" d="M164.213 30.2717l-0.180982 -1.30735 -0.0603817 0c-0.7644,1.04591 -1.8906,1.56895 -3.31887,1.56895 -2.03144,0 -3.49969,-1.42811 -3.49969,-3.35902 0,-2.81607 2.43371,-4.26426 6.65766,-4.26426l0 -0.201218c0,-1.5084 -0.804546,-2.25273 -2.37349,-2.25273 -1.12636,0 -2.11189,0.281673 -2.97682,0.844855l-0.523036 -1.66947c1.04591,-0.663873 2.37349,-0.985528 3.92237,-0.985528 2.97682,0 4.46531,1.56878 4.46531,4.70668l0 4.18364c0,1.14644 0.0602185,2.0316 0.160909,2.71538l-2.27296 0 0 0.0200728zm-0.361964 -5.67213c-2.81607,0 -4.22395,0.683782 -4.22395,2.29304 0,1.18675 0.724091,1.77 1.72986,1.77 1.28727,0 2.47402,-0.985528 2.47402,-2.31311l0 -1.74993 0.0200728 0z"/>
     <path id="_218445376" class="fil2" d="M176.563 30.5333c-1.60926,0 -2.81607,-0.683782 -3.58031,-2.01136l-0.0603817 -0.000163194 -0.140673 1.74993 -2.15236 0c0.0603817,-0.905073 0.100691,-1.95098 0.100691,-3.07735l0 -13.5368 2.53424 0 0 6.87895 0.0403089 0c0.744164,-1.2672 1.97122,-1.8906 3.62046,-1.8906 2.73546,0 4.66637,2.35326 4.66637,5.75258 0.020236,3.56007 -2.11189,6.13479 -5.02833,6.13479zm-0.502964 -9.89608c-1.44818,0 -2.79567,1.2672 -2.79567,3.01713l0 1.99129c0,1.56878 1.20682,2.85606 2.73546,2.85606 1.8906,0 3.01713,-1.54871 3.01713,-4.00266 0.0200728,-2.29304 -1.16684,-3.86182 -2.95691,-3.86182z"/>
     <polygon id="_218445472" class="fil2" points="187.867,30.2717 185.333,30.2717 185.333,13.6575 187.867,13.6575 "/>
     <path id="_218445568" class="fil2" d="M201.645 25.1829l-7.6032 0c0.0603817,2.1522 1.46842,3.37909 3.58031,3.37909 1.12636,0 2.1522,-0.180982 3.07751,-0.543109l0.402273 1.74993c-1.08622,0.462655 -2.33335,0.704018 -3.82167,0.704018 -3.56024,0 -5.67213,-2.25273 -5.67213,-5.73251 0,-3.49986 2.1522,-6.11455 5.39046,-6.11455 2.89653,0 4.72691,2.1522 4.72691,5.41069 0.0200728,0.442255 0,0.844692 -0.0804546,1.14644zm-2.31327 -1.79024c0,-1.74993 -0.885001,-2.99706 -2.51433,-2.99706 -1.44818,0 -2.59462,1.2672 -2.7756,2.99706l5.28993 0z"/>
     <path id="_218445664" class="fil2" d="M216.972 30.5333c-3.31871,0 -5.49115,-2.47402 -5.49115,-5.85328 0,-3.51993 2.19251,-6.01402 5.67229,-6.01402 3.27857,0 5.49115,2.37333 5.49115,5.83304 0,3.54 -2.27296,6.03426 -5.67229,6.03426zm0.100527 -10.0371c-1.83038,0 -2.99706,1.70978 -2.99706,4.10335 0,2.35342 1.18675,4.04297 2.97682,4.04297 1.79007,0 2.97698,-1.83038 2.97698,-4.10335 0,-2.31311 -1.18658,-4.04297 -2.95675,-4.04297z"/>
     <path id="_218445760" class="fil2" d="M236.241 30.2717l-2.5344 0 0 -6.53706c0,-2.01136 -0.7644,-3.01713 -2.29304,-3.01713 -1.50856,0 -2.53424,1.28727 -2.53424,2.79584l0 6.77842 -2.5344 0.000163194 0 -8.12608c0,-1.00576 -0.0200728,-2.09198 -0.100691,-3.25849l2.23266 0 0.120763 1.74993 0.0603817 0c0.683782,-1.20682 2.05151,-1.99129 3.60038,-1.99129 2.39356,0 3.96251,1.83022 3.96251,4.8072l0.0200728 6.79849 0 0z"/>
     <path id="_218445856" class="fil2" d="M252.795 20.7778l-2.77577 0 0 5.53146c0,1.40787 0.482728,2.11189 1.46826,2.11189 0.442419,0 0.824782,-0.0401457 1.12636,-0.1206l0.0603817 1.93091c-0.482728,0.180982 -1.14644,0.281673 -1.97122,0.281673 -1.99129,0 -3.17804,-1.10629 -3.17804,-3.98258l0.000163194 -5.75275 -1.66947 0 0 -1.8906 1.66947 0 0 -2.09198 2.47402 -0.744164 0 2.83615 2.77577 0 0 1.8906 0.0200728 0z"/>
     <path id="_218445952" class="fil2" d="M266.191 30.2717l-2.5344 0 0 -6.49691c0,-2.03144 -0.7644,-3.07735 -2.29304,-3.07735 -1.30735,0 -2.53424,0.885001 -2.53424,2.69531l0 6.85888 -2.5344 0 0 -16.6141 2.5344 0 0 6.83864 0.0401457 0c0.804546,-1.24696 1.95115,-1.85046 3.4194,-1.85046 2.4138,0 3.88206,1.87053 3.88206,4.84751l0 6.79849 0.0200728 0z"/>
     <path id="_218446048" class="fil2" d="M279.125 25.1829l-7.58313 0c0.0403089,2.1522 1.46842,3.37909 3.58031,3.37909 1.12653,0 2.1522,-0.180982 3.07751,-0.543109l0.402273 1.74993c-1.08622,0.462655 -2.35326,0.704018 -3.82167,0.704018 -3.56007,0 -5.67213,-2.25273 -5.67213,-5.73251 0,-3.49986 2.1522,-6.11455 5.39062,-6.11455 2.89637,0 4.72675,2.1522 4.72675,5.41069 -0.0200728,0.442255 -0.0401457,0.844692 -0.100527,1.14644zm-2.33335 -1.79024c0,-1.74993 -0.885001,-2.99706 -2.51417,-2.99706 -1.44835,0 -2.59478,1.2672 -2.77577,2.99706l5.28993 0z"/>
    </g>
   </g>
  </g>
 </g>
</svg>
