<?xml version="1.0" encoding="UTF-8"?>
<!DOCTYPE svg PUBLIC "-//W3C//DTD SVG 1.1//EN" "http://www.w3.org/Graphics/SVG/1.1/DTD/svg11.dtd">
<!-- Creator: CorelDRAW -->
<svg xmlns="http://www.w3.org/2000/svg" xml:space="preserve" width="300px" height="86px" style="shape-rendering:geometricPrecision; text-rendering:geometricPrecision; image-rendering:optimizeQuality; fill-rule:evenodd; clip-rule:evenodd"
viewBox="0 0 321.383 92.2232"
 xmlns:xlink="http://www.w3.org/1999/xlink">
 <defs>
  <style type="text/css">
   <![CDATA[
    .fil1 {fill:none}
    .fil6 {fill:#373435}
    .fil0 {fill:#FEFEFE}
    .fil3 {fill:url(#id0)}
    .fil2 {fill:url(#id1)}
    .fil5 {fill:url(#id2)}
    .fil4 {fill:url(#id3)}
   ]]>
  </style>
  <linearGradient id="id0" gradientUnits="userSpaceOnUse" x1="33.2907" y1="29.3308" x2="74.2302" y2="29.3308">
   <stop offset="0" style="stop-color:#52C1AD"/>
   <stop offset="1" style="stop-color:#DEE89A"/>
  </linearGradient>
  <linearGradient id="id1" gradientUnits="userSpaceOnUse" x1="49.4256" y1="13.4454" x2="49.4256" y2="77.4433">
   <stop offset="0" style="stop-color:#257CB0"/>
   <stop offset="0.290196" style="stop-color:#4A93B5"/>
   <stop offset="0.768627" style="stop-color:#78BCBB"/>
   <stop offset="1" style="stop-color:#89CFBD"/>
  </linearGradient>
  <linearGradient id="id2" gradientUnits="userSpaceOnUse" x1="77.3391" y1="36.8521" x2="77.3391" y2="54.0412">
   <stop offset="0" style="stop-color:#F58879"/>
   <stop offset="0.121569" style="stop-color:#F69079"/>
   <stop offset="0.709804" style="stop-color:#FCB877"/>
   <stop offset="1" style="stop-color:#FEC874"/>
  </linearGradient>
  <linearGradient id="id3" gradientUnits="userSpaceOnUse" x1="53.7605" y1="45.4467" x2="53.7605" y2="77.6739">
   <stop offset="0" style="stop-color:#EC413D"/>
   <stop offset="0.168627" style="stop-color:#DA4452"/>
   <stop offset="0.580392" style="stop-color:#B0487A"/>
   <stop offset="0.858824" style="stop-color:#954A92"/>
   <stop offset="1" style="stop-color:#8A4A9D"/>
  </linearGradient>
 </defs>
 <g id="Layer_x0020_1">
  <metadata id="CorelCorpID_0Corel-Layer"/>
  <g id="_222638024">
   <path id="_221608872" class="fil0" d="M321.383 82.9707c0,5.10895 -4.14366,9.25244 -9.25244,9.25244l-302.858 0c-5.10895,0 -9.27268,-4.14366 -9.27268,-9.25244l0 -73.7183c0,-5.10895 4.14366,-9.25244 9.27268,-9.25244l302.838 0c5.12902,0 9.25244,4.14366 9.25244,9.25244l0.0200728 73.7183 0 0z"/>
   <g id="PLAY_2_">
    <g>
     <g>
      <path id="_221607816" class="fil1" d="M74.2302 36.8521l-13.0284 -7.52128c0,0 -23.7315,-13.7014 -25.1247,-14.5063 -1.39319,-0.804872 -2.78637,-0.315291 -2.78637,1.36495 0,2.8053 0,29.2572 0,29.2572 0,0 0,28.589 0,29.8504 0,1.26133 0.993198,1.80737 2.20736,1.10613 1.20959,-0.701407 25.7037,-14.8405 25.7037,-14.8405l13.0284 -7.52144c0,0 11.0515,-6.38235 12.5201,-7.22965 1.46842,-0.84714 1.32726,-2.01447 0.0894303,-2.67801 -1.24256,-0.673175 -12.6095,-7.28155 -12.6095,-7.28155z"/>
     </g>
     <polygon id="_221607888" class="fil2" points="33.2907,13.4454 33.2907,45.4467 33.2907,77.4433 65.5604,45.4467 "/>
    </g>
    <g>
     <g>
      <path id="_221608104" class="fil1" d="M74.2302 36.8521l-13.0284 -7.52128c0,0 -23.7315,-13.7014 -25.1247,-14.5063 -1.39319,-0.804872 -2.78637,-0.315291 -2.78637,1.36495 0,2.8053 0,29.2572 0,29.2572 0,0 0,28.589 0,29.8504 0,1.26133 0.993198,1.80737 2.20736,1.10613 1.20959,-0.701407 25.7037,-14.8405 25.7037,-14.8405l13.0284 -7.52144c0,0 11.0515,-6.38235 12.5201,-7.22965 1.46842,-0.84714 1.32726,-2.01447 0.0894303,-2.67801 -1.24256,-0.673175 -12.6095,-7.28155 -12.6095,-7.28155z"/>
     </g>
     <polygon id="_221608032" class="fil3" points="74.2302,36.8521 61.2018,29.3308 33.2907,13.2148 33.2907,13.4454 65.5604,45.4467 "/>
    </g>
    <g>
     <g>
      <path id="_221608272" class="fil1" d="M74.2302 36.8521l-13.0284 -7.52128c0,0 -23.7315,-13.7014 -25.1247,-14.5063 -1.39319,-0.804872 -2.78637,-0.315291 -2.78637,1.36495 0,2.8053 0,29.2572 0,29.2572 0,0 0,28.589 0,29.8504 0,1.26133 0.993198,1.80737 2.20736,1.10613 1.20959,-0.701407 25.7037,-14.8405 25.7037,-14.8405l13.0284 -7.52144c0,0 11.0515,-6.38235 12.5201,-7.22965 1.46842,-0.84714 1.32726,-2.01447 0.0894303,-2.67801 -1.24256,-0.673175 -12.6095,-7.28155 -12.6095,-7.28155z"/>
     </g>
     <polygon id="_221609760" class="fil4" points="33.2907,77.4433 33.2907,77.6739 61.2018,61.5579 74.2302,54.0413 65.5604,45.4467 "/>
    </g>
    <g>
     <g>
      <path id="_221608536" class="fil1" d="M74.2302 36.8521l-13.0284 -7.52128c0,0 -23.7315,-13.7014 -25.1247,-14.5063 -1.39319,-0.804872 -2.78637,-0.315291 -2.78637,1.36495 0,2.8053 0,29.2572 0,29.2572 0,0 0,28.589 0,29.8504 0,1.26133 0.993198,1.80737 2.20736,1.10613 1.20959,-0.701407 25.7037,-14.8405 25.7037,-14.8405l13.0284 -7.52144c0,0 11.0515,-6.38235 12.5201,-7.22965 1.46842,-0.84714 1.32726,-2.01447 0.0894303,-2.67801 -1.24256,-0.673175 -12.6095,-7.28155 -12.6095,-7.28155z"/>
     </g>
     <polygon id="_221608512" class="fil5" points="74.2302,36.8521 65.5604,45.4467 74.2302,54.0413 89.1177,45.4467 "/>
    </g>
   </g>
   <path id="_221606328" class="fil6" d="M236.454 57.9526c-1.21449,0 -2.31572,-0.22586 -3.31838,-0.668279 -1.0025,-0.447151 -1.84507,-1.13436 -2.52281,-2.06163l-0.20236 0c0.136593,1.08736 0.202524,2.11809 0.202524,3.09236l0 7.65787 -2.8195 0 0 -26.9698 2.29222 0 0.390686 2.54631 0.13643 0c0.724744,-1.02143 1.56731,-1.75564 2.53228,-2.20736 0.964966,-0.451884 2.0662,-0.677744 3.30892,-0.677744 2.46635,0 4.37262,0.842407 5.71407,2.53212 1.34129,1.68514 2.0143,4.05259 2.0143,7.09779 0,3.05483 -0.682314,5.43158 -2.04743,7.12619 -1.36479,1.68955 -3.26176,2.53212 -5.68094,2.53212zm-0.409453 -16.8927c-1.90154,0 -3.27595,0.527279 -4.12783,1.58151 -0.847303,1.05423 -1.28499,2.72991 -1.30849,5.02686l0 0.626012c0,2.61698 0.437686,4.48555 1.30849,5.61501 0.870639,1.1249 2.26856,1.68987 4.19376,1.68987 1.60958,0 2.86634,-0.649675 3.77941,-1.95343 0.9085,-1.29902 1.36512,-3.09709 1.36512,-5.38458 0,-2.32045 -0.456617,-4.09959 -1.36512,-5.34215 -0.908337,-1.2424 -2.19333,-1.8591 -3.84534,-1.8591z"/>
   <polygon id="_221608464" class="fil6" points="250.706,57.6138 247.887,57.6138 247.887,31.1947 250.706,31.1947 "/>
   <path id="_221608896" class="fil6" d="M266.911 57.6138l-0.559918 -2.64994 -0.136593 -0.000163194c-0.927268,1.16733 -1.85454,1.958 -2.77707,2.36762 -0.922535,0.414186 -2.07566,0.621279 -3.45465,0.621279 -1.84507,0 -3.29015,-0.475384 -4.33965,-1.42615 -1.0495,-0.950768 -1.57205,-2.30152 -1.57205,-4.05733 0,-3.75591 3.0075,-5.72811 9.01809,-5.9117l3.15829 -0.103465 0 -1.15313c0,-1.45912 -0.315454,-2.54174 -0.941466,-3.23352 -0.625849,-0.696512 -1.63324,-1.04477 -3.0124,-1.04477 -1.55312,0 -3.30419,0.475221 -5.26202,1.42615l-0.866233 -2.15579c0.917802,-0.498884 1.92047,-0.88957 3.01713,-1.17206 1.09193,-0.282325 2.18859,-0.423651 3.28526,-0.423651 2.21699,0 3.86427,0.494314 4.9327,1.47805 1.06843,0.983733 1.60501,2.56508 1.60501,4.73964l0 12.6989 -2.09443 0 0 0zm-6.36815 -1.9864c1.75564,0 3.1299,-0.480116 4.1324,-1.44492 1.0025,-0.96007 1.50155,-2.31099 1.50155,-4.04313l0 -1.68024 -2.8195 0.117663c-2.24049,0.079965 -3.8548,0.428221 -4.848,1.04477 -0.988302,0.61671 -1.48719,1.57678 -1.48719,2.88054 0,1.0167 0.305825,1.79334 0.927268,2.32519 0.621279,0.536582 1.48262,0.80014 2.59348,0.80014z"/>
   <path id="_221608992" class="fil6" d="M270.634 39.0032l3.0217 0 4.07609 10.6136c0.894303,2.42408 1.44981,4.17026 1.66621,5.24815l0.136593 0c0.145895,-0.579012 0.456617,-1.56731 0.927268,-2.96523 0.470651,-1.39792 2.005,-5.69514 4.60794,-12.8966l3.0217 0 -7.99683 21.1945c-0.790674,2.09459 -1.71794,3.58194 -2.77691,4.45732 -1.05897,0.875535 -2.35815,1.31322 -3.89723,1.31322 -0.861337,0 -1.70848,-0.0941629 -2.54631,-0.287058l0 -2.25926c0.621279,0.13643 1.31779,0.20236 2.0897,0.20236 1.9345,0 3.31838,-1.0872 4.14202,-3.26176l1.03547 -2.64994 -7.50741 -18.7094z"/>
   <path id="_221609112" class="fil6" d="M184.237 40.7353c0.894303,0.738779 2.76287,2.29679 2.76287,5.25745 0,2.88054 -1.63324,4.24549 -3.27122,5.52575 -0.508349,0.503616 -1.09193,1.05423 -1.09193,1.911 0,0.856605 0.583581,1.32252 1.01197,1.67094l1.40249 1.0872c1.71337,1.44035 3.26649,2.76761 3.26649,5.45051 0,3.65718 -3.54408,7.35662 -10.2372,7.35662 -5.64341,0 -8.36858,-2.68274 -8.36858,-5.56801 0,-1.40265 0.696512,-3.38415 2.9982,-4.74911 2.40972,-1.47805 5.68568,-1.67094 7.43658,-1.79334 -0.545884,-0.701244 -1.16716,-1.44019 -1.16716,-2.64521 0,-0.658977 0.197628,-1.04966 0.390523,-1.52031 -0.428221,0.0376978 -0.856605,0.0801282 -1.24729,0.0801282 -4.12309,0 -6.46232,-3.07359 -6.46232,-6.10949 0,-1.79317 0.818907,-3.77941 2.48985,-5.21502 2.22156,-1.83104 4.86677,-2.14176 6.97066,-2.14176l8.01576 0 -2.48985 1.40265 -2.40988 0 0 0zm-2.76761 17.2832c-0.310558,-0.0424304 -0.508349,-0.0424304 -0.894303,-0.0424304 -0.348256,0 -2.45688,0.0801282 -4.09013,0.626012 -0.856605,0.310558 -3.34662,1.24272 -3.34662,4.01033 0,2.76271 2.68764,4.74911 6.85316,4.74911 3.73241,0 5.72337,-1.79334 5.72337,-4.20795 0,-1.98623 -1.28483,-3.03116 -4.24549,-5.13506zm1.12963 -7.39905c0.894303,-0.894303 0.969698,-2.14159 0.969698,-2.84284 0,-2.80057 -1.67094,-7.16372 -4.90447,-7.16372 -1.01197,0 -2.1039,0.503616 -2.72534,1.28499 -0.658977,0.818907 -0.856605,1.86857 -0.856605,2.88054 0,2.60751 1.52031,6.9284 4.86677,6.9284 0.979,0.00456943 2.02393,-0.461349 2.64994,-1.08736z"/>
   <path id="_221609208" class="fil6" d="M159.729 57.3973c-6.17999,0 -9.48418,-4.81977 -9.48418,-9.17346 0,-5.09279 4.15606,-9.44191 10.0678,-9.44191 5.70934,0 9.28655,4.46678 9.28655,9.17346 0,4.57971 -3.53478,9.44191 -9.87013,9.44191zm4.8573 -3.14883c0.932,-1.24256 1.16733,-2.80057 1.16733,-4.31615 0,-3.42185 -1.63324,-9.9501 -6.45301,-9.9501 -1.28026,0 -2.56524,0.508349 -3.49725,1.32252 -1.51542,1.36022 -1.78844,3.06886 -1.78844,4.74454 0,3.8455 1.90627,10.1761 6.60821,10.1761 1.51558,-0.000163194 3.07359,-0.734373 3.96316,-1.97693z"/>
   <path id="_221606544" class="fil6" d="M138.666 57.3973c-6.17999,0 -9.48418,-4.81977 -9.48418,-9.17346 0,-5.09279 4.16079,-9.44191 10.0678,-9.44191 5.71407,0 9.28655,4.46678 9.28655,9.17346 -0.000163194,4.57971 -3.53494,9.44191 -9.87013,9.44191zm4.8573 -3.14883c0.931837,-1.24256 1.16733,-2.80057 1.16733,-4.31615 0,-3.42185 -1.63341,-9.9501 -6.45301,-9.9501 -1.28026,0 -2.56524,0.508349 -3.49725,1.32252 -1.51558,1.36022 -1.78861,3.06886 -1.78861,4.74454 0,3.8455 1.90154,10.1761 6.60837,10.1761 1.51574,-0.000163194 3.06886,-0.734373 3.96316,-1.97693z"/>
   <path id="_221609280" class="fil6" d="M126.212 56.7853l-5.58694 1.28972c-2.26872,0.352988 -4.29722,0.66371 -6.44828,0.66371 -10.7879,0 -14.8875,-7.93106 -14.8875,-14.1439 0,-7.57791 5.82211,-14.6099 15.7864,-14.6099 2.10863,0 4.14202,0.310721 5.97763,0.81907 2.93243,0.818907 4.29738,1.8356 5.15872,2.42392l-3.24299 3.08763 -1.36495 0.310721 0.974268 -1.56274c-1.32742,-1.28956 -3.75134,-3.67121 -8.35928,-3.67121 -6.17542,0 -10.8256,4.69264 -10.8256,11.5269 0,7.34242 5.31392,14.2615 13.8331,14.2615 2.50405,0 3.78904,-0.508349 4.96093,-0.979l0.000163194 -6.29292 -5.8975 0.310558 3.12533 -1.68024 8.28389 0 -1.0167 0.974268c-0.277593,0.235326 -0.315291,0.315291 -0.390523,0.625849 -0.0424304,0.352988 -0.0753956,1.48735 -0.0753956,1.87804l-0.00473262 4.76804 0 0z"/>
   <path id="_221609592" class="fil6" d="M196.583 55.6604c-1.28956,-0.1175 -1.55785,-0.352825 -1.55785,-1.87804l0 -0.428221 0 -21.6842c0.00946525,-0.0846976 0.0141979,-0.169395 0.0187673,-0.254093 0.155361,-1.36495 0.546047,-1.60028 1.76037,-2.30642l-5.59168 0.000163194 -2.93227 1.40738 2.9889 -0.000163194 0 0.0187673 0 -0.0140347 0 22.8326 0 1.28956c0,0.781372 -0.155361,0.899035 -1.0544,2.07109l6.91893 0 1.44492 -0.856605c-0.663546,-0.0801282 -1.32726,-0.117826 -1.9957,-0.197791z"/>
   <path id="_221609376" class="fil6" d="M212.482 56.0181c-0.423651,0.235326 -0.851872,0.508349 -1.27552,0.696512 -1.28499,0.583745 -2.60278,0.738942 -3.77011,0.738942 -1.23783,0 -3.18179,-0.079965 -5.16329,-1.51558 -2.75357,-1.9438 -3.9537,-5.28095 -3.9537,-8.18972 0,-6.01516 4.89043,-8.96163 8.8864,-8.96163 1.39792,0 2.83354,0.348256 4.00086,1.08736 1.93923,1.28009 2.44269,2.94647 2.71114,3.84061l-9.11699 3.68541 -2.9889 0.230756c0.969698,4.92797 4.30669,7.79904 7.99209,7.79904 1.97693,0 3.41712,-0.696512 4.73507,-1.35549l-2.05706 1.9438zm-3.64298 -11.5646c0.734209,-0.268291 1.1249,-0.503616 1.1249,-1.04477 0,-1.55328 -1.74617,-3.33715 -3.84077,-3.33715 -1.55312,0 -4.46188,1.20486 -4.46188,5.39388 0,0.658977 0.079965,1.35549 0.1175,2.0569l7.06026 -3.06886z"/>
   <polygon id="_221605440" class="fil6" points="216.229,39.0549 216.229,41.6154 215.918,41.6154 215.918,39.0549 215.071,39.0549 215.071,38.7914 217.076,38.7914 217.076,39.0549 "/>
   <polygon id="_221609808" class="fil6" points="219.721,41.6154 219.721,39.0314 219.707,39.0314 218.916,41.6154 218.672,41.6154 217.876,39.0314 217.867,39.0314 217.867,41.6154 217.584,41.6154 217.584,38.7914 218.069,38.7914 218.789,41.0741 218.799,41.0741 219.509,38.7914 219.999,38.7914 219.999,41.6154 "/>
   <path id="_221606736" class="fil6" d="M107.051 22.374l-1.94397 0c0,-0.268128 -0.183593,-1.02127 -0.550779,-2.26856l-2.80514 0c-0.381384,1.22363 -0.569547,1.9815 -0.569547,2.26856l-1.82614 0c0,-0.155197 0.470651,-1.45438 1.41669,-3.88304 0.946035,-2.42865 1.41669,-3.77011 1.41669,-4.0149l2.29222 0c0,0.230756 0.428384,1.54855 1.28499,3.95843 0.856605,2.40515 1.28499,3.72311 1.28499,3.9395zm-2.80057 -3.42642c-0.691942,-2.08513 -1.03547,-3.21476 -1.03547,-3.38415l-0.0988955 0c0,0.155361 -0.357721,1.28499 -1.073,3.38415l2.20736 0z"/>
   <path id="_218911320" class="fil6" d="M114.873 22.374l-1.49681 0c0,-0.164663 -0.555349,-1.0402 -1.66621,-2.62644 -1.16259,-1.67094 -1.82614,-2.81461 -1.99097,-3.42642l-0.0988955 0c0.0988955,0.884837 0.150628,1.68514 0.150628,2.40042 0,0.997768 0.0282325,2.21683 0.0846976,3.65244l-1.49192 0c0.0610345,-1.25186 0.0892671,-2.63101 0.0892671,-4.1324 0,-1.47805 -0.0282325,-2.73464 -0.0892671,-3.77011l1.80264 0c0,0.216558 0.498884,1.06843 1.49665,2.56508 1.06386,1.59098 1.67567,2.66887 1.83104,3.23352l0.0894303 0c-0.0988955,-0.903605 -0.145895,-1.70848 -0.145895,-2.42865 0,-1.09666 -0.0282325,-2.22156 -0.0846976,-3.37485l1.51542 0c-0.0564651,1.0025 -0.0846976,2.25926 -0.0846976,3.77011 0.00489582,1.52521 0.0331284,2.9042 0.0895935,4.13729z"/>
   <path id="_218913168" class="fil6" d="M123.67 18.1521c0,1.14856 -0.367023,2.15106 -1.10597,3.00766 -0.734373,0.856605 -1.76984,1.28499 -3.09236,1.28499 -0.597779,0 -1.42615,-0.0236631 -2.47581,-0.070663 0.0517325,-1.22363 0.079965,-2.59821 0.079965,-4.1324 0,-1.47331 -0.0282325,-2.72991 -0.079965,-3.77011l1.0637 0c0.174291,0 0.433117,-0.00473262 0.77664,-0.0189305 0.343686,-0.0140347 0.569547,-0.0187673 0.673175,-0.0187673 1.45895,0 2.51808,0.362454 3.17706,1.09209 0.654081,0.734046 0.98357,1.60485 0.98357,2.62612zm-1.65674 0.258989c0,-0.77664 -0.22586,-1.43088 -0.677744,-1.96273 -0.451884,-0.531849 -1.14383,-0.795407 -2.07566,-0.795407 -0.174291,0 -0.414349,0.0187673 -0.715605,0.0564651 0.0424304,0.809442 0.0611977,1.65201 0.0611977,2.53685 0,0.964966 0.0187673,1.92504 0.0611977,2.87597 0.263558,0.0517325 0.527116,0.079965 0.790674,0.079965 0.870803,0 1.51558,-0.268291 1.9345,-0.809442 0.419082,-0.541314 0.621442,-1.20502 0.621442,-1.98166z"/>
   <path id="_218913096" class="fil6" d="M131.775 22.374l-1.79807 0c-0.470651,-1.43072 -0.828372,-2.31572 -1.0779,-2.64978 -0.24936,-0.334221 -0.654244,-0.503616 -1.21433,-0.503616 -0.235326,0 -0.461186,0 -0.673175,0.00456943 0,1.0402 0.0187673,2.08986 0.0564651,3.14883l-1.68481 0c0.0517325,-1.22363 0.079965,-2.59821 0.079965,-4.1324 0,-1.47331 -0.0282325,-2.72991 -0.079965,-3.77011l1.0495 0c0.122395,0 0.376488,-0.00473262 0.762442,-0.0189305 0.386117,-0.0140347 0.743838,-0.0187673 1.07316,-0.0187673 1.85454,0 2.78637,0.635477 2.78637,1.90627 0,1.0074 -0.531849,1.70864 -1.59081,2.10406l0 0.0892671c0.409453,0.11293 0.767175,0.433117 1.073,0.9555 0.301419,0.531686 0.720338,1.48719 1.23815,2.8851zm-2.27345 -5.58221c0,-0.804872 -0.517651,-1.20959 -1.55312,-1.20959 -0.381384,0 -0.715605,0.0282325 -1.0074,0.0846976 0.0424304,0.626012 0.0659303,1.44492 0.0659303,2.45231 0.221291,0.00946525 0.409617,0.0140347 0.564814,0.0140347 1.28499,0 1.92977,-0.447151 1.92977,-1.34145z"/>
   <path id="_218912976" class="fil6" d="M140.473 18.2793c0,1.24256 -0.381384,2.27329 -1.13909,3.08763 -0.762442,0.818907 -1.69917,1.22363 -2.81934,1.22363 -1.06843,0 -1.96273,-0.376488 -2.68291,-1.1249 -0.720175,-0.748407 -1.0779,-1.70374 -1.0779,-2.86177 0,-1.24256 0.381384,-2.27329 1.13909,-3.08763 0.762442,-0.818907 1.69917,-1.22363 2.81934,-1.22363 1.06843,0 1.96273,0.371756 2.68291,1.12016 0.720175,0.748407 1.0779,1.70391 1.0779,2.8665zm-1.67094 0.173965c0,-0.84714 -0.216558,-1.52962 -0.649512,-2.0569 -0.433117,-0.527116 -0.964966,-0.790674 -1.60044,-0.790674 -0.593047,0 -1.09193,0.263558 -1.50612,0.795407 -0.414186,0.531849 -0.621279,1.20029 -0.621279,2.00973 0,0.84257 0.216558,1.52505 0.654081,2.05216 0.433117,0.527116 0.969698,0.790674 1.60044,0.790674 0.588314,0 1.09193,-0.268128 1.50612,-0.80014 0.409617,-0.526953 0.61671,-1.1954 0.61671,-2.00027z"/>
   <path id="_218912880" class="fil6" d="M143.905 22.374l-1.71794 0c0.0518957,-1.25186 0.0801282,-2.63101 0.0801282,-4.1324 0,-1.47805 -0.0282325,-2.73464 -0.0801282,-3.77011l1.71794 0c-0.0517325,1.02127 -0.079965,2.27329 -0.079965,3.77011 0,1.52488 0.0282325,2.90404 0.079965,4.1324z"/>
   <path id="_218914464" class="fil6" d="M152.697 18.1521c0,1.14856 -0.367186,2.15106 -1.10613,3.00766 -0.734209,0.856605 -1.76984,1.28499 -3.09236,1.28499 -0.597779,0 -1.42615,-0.0236631 -2.47581,-0.070663 0.0518957,-1.22363 0.0801282,-2.59821 0.0801282,-4.1324 0,-1.47331 -0.0282325,-2.72991 -0.0801282,-3.77011l1.06386 0c0.174128,0 0.432953,-0.00473262 0.776477,-0.0189305 0.343686,-0.0140347 0.569547,-0.0187673 0.673175,-0.0187673 1.45912,0 2.51808,0.362454 3.17706,1.09209 0.658814,0.734046 0.983733,1.60485 0.983733,2.62612zm-1.65218 0.258989c0,-0.77664 -0.22586,-1.43088 -0.677744,-1.96273 -0.451884,-0.531849 -1.14383,-0.795407 -2.07583,-0.795407 -0.174128,0 -0.414186,0.0187673 -0.715442,0.0564651 0.0424304,0.809442 0.0611977,1.65201 0.0611977,2.53685 0,0.964966 0.0187673,1.92504 0.0611977,2.87597 0.263558,0.0517325 0.527116,0.079965 0.790674,0.079965 0.870803,0 1.51558,-0.268291 1.9345,-0.809442 0.418919,-0.541314 0.621442,-1.20502 0.621442,-1.98166z"/>
   <path id="_218914656" class="fil6" d="M164.365 22.374l-1.94397 0c0,-0.268128 -0.18343,-1.02127 -0.550616,-2.26856l-2.8053 0c-0.381384,1.22363 -0.569547,1.9815 -0.569547,2.26856l-1.8263 0c0,-0.155197 0.470814,-1.45438 1.41685,-3.88304 0.946035,-2.42865 1.41669,-3.77011 1.41669,-4.0149l2.29238 0c0,0.230756 0.428221,1.54855 1.28483,3.95843 0.856605,2.40515 1.28499,3.72311 1.28499,3.9395zm-2.80057 -3.42642c-0.691942,-2.08513 -1.0402,-3.21476 -1.0402,-3.38415l-0.0987323 0c0,0.155361 -0.357721,1.28499 -1.07316,3.38415l2.21209 0z"/>
   <path id="_79391448" class="fil6" d="M171.444 16.5425c0,0.964802 -0.357721,1.68024 -1.07773,2.14159 -0.720175,0.461186 -1.60044,0.691779 -2.64064,0.691779 -0.188326,0 -0.324756,-0.00456943 -0.404721,-0.0140347 0,0.762442 0.0234999,1.76494 0.0659303,3.00766l-1.70391 0c0.0518957,-1.16733 0.0801282,-2.54648 0.0801282,-4.13256 0,-1.45438 -0.0282325,-2.71114 -0.0801282,-3.77011l1.0544 -0.000163194c0.150628,0 0.437686,-0.00456943 0.861337,-0.0187673 0.423651,-0.0140347 0.790674,-0.0187673 1.10597,-0.0187673 0.767175,0 1.41685,0.174128 1.9487,0.522547 0.532012,0.348256 0.790674,0.884674 0.790674,1.59081zm-1.56731 0.334058c0,-0.86607 -0.574116,-1.29902 -1.72267,-1.29902 -0.287058,0 -0.593047,0.0282325 -0.908337,0.0894303 0.0422672,0.762442 0.0659303,1.62851 0.0659303,2.59805 0.0987323,0.00946525 0.216558,0.0141979 0.352988,0.0141979 1.47315,0.000163194 2.21209,-0.465919 2.21209,-1.40265z"/>
   <path id="_218443336" class="fil6" d="M178.721 16.5425c0,0.964802 -0.357721,1.68024 -1.0779,2.14159 -0.720175,0.461186 -1.60028,0.691779 -2.64048,0.691779 -0.188326,0 -0.324756,-0.00456943 -0.404884,-0.0140347 0,0.762442 0.0236631,1.76494 0.0659303,3.00766l-1.70374 0c0.0517325,-1.16733 0.079965,-2.54648 0.079965,-4.13256 0,-1.45438 -0.0282325,-2.71114 -0.079965,-3.77011l1.05423 -0.000163194c0.150628,0 0.437849,-0.00456943 0.861337,-0.0187673 0.423651,-0.0140347 0.790674,-0.0187673 1.10613,-0.0187673 0.767175,0 1.41669,0.174128 1.9487,0.522547 0.531849,0.348256 0.790674,0.884674 0.790674,1.59081zm-1.56748 0.334058c0,-0.86607 -0.574116,-1.29902 -1.72267,-1.29902 -0.287058,0 -0.593047,0.0282325 -0.908337,0.0894303 0.0422672,0.762442 0.0659303,1.62851 0.0659303,2.59805 0.0987323,0.00946525 0.216558,0.0141979 0.352825,0.0141979 1.47805,0.000163194 2.21226,-0.465919 2.21226,-1.40265z"/>
   <path id="_218443432" class="fil6" d="M190.619 18.2793c0,1.24256 -0.381221,2.27329 -1.13893,3.08763 -0.762442,0.818907 -1.69917,1.22363 -2.8195,1.22363 -1.06843,0 -1.96273,-0.376488 -2.68274,-1.1249 -0.720175,-0.748407 -1.0779,-1.70374 -1.0779,-2.86177 0,-1.24256 0.381221,-2.27329 1.13893,-3.08763 0.762605,-0.818907 1.69917,-1.22363 2.8195,-1.22363 1.06843,0 1.96273,0.371756 2.68291,1.12016 0.715442,0.748407 1.07773,1.70391 1.07773,2.8665zm-1.67551 0.173965c0,-0.84714 -0.216558,-1.52962 -0.649512,-2.0569 -0.433117,-0.527279 -0.964966,-0.790674 -1.60044,-0.790674 -0.593047,0 -1.09193,0.263558 -1.50612,0.795407 -0.414186,0.531849 -0.621442,1.20029 -0.621442,2.00973 0,0.84257 0.216558,1.52505 0.654244,2.05216 0.433117,0.527116 0.969698,0.790674 1.60044,0.790674 0.593047,0 1.09193,-0.268128 1.50612,-0.80014 0.409617,-0.526953 0.61671,-1.1954 0.61671,-2.00027z"/>
   <path id="_218443528" class="fil6" d="M198.842 22.374l-1.49665 0c0,-0.164663 -0.555512,-1.0402 -1.66621,-2.62644 -1.16259,-1.67094 -1.8263,-2.81461 -1.99097,-3.42642l-0.0988955 0c0.0988955,0.884837 0.150628,1.68514 0.150628,2.40042 0,0.997768 0.0282325,2.21683 0.0846976,3.65244l-1.49208 0c0.0611977,-1.25186 0.0894303,-2.63101 0.0894303,-4.1324 0,-1.47805 -0.0282325,-2.73464 -0.0894303,-3.77011l1.8028 0c0,0.216558 0.498884,1.06843 1.49681,2.56508 1.0637,1.59098 1.67551,2.66887 1.83087,3.23352l0.0894303 0c-0.0988955,-0.903605 -0.146059,-1.70848 -0.146059,-2.42865 0,-1.09666 -0.0282325,-2.22156 -0.0846976,-3.37485l1.51574 0c-0.0564651,1.0025 -0.0848608,2.25926 -0.0848608,3.77011 0.00473262,1.52521 0.0329652,2.9042 0.0894303,4.13729z"/>
  </g>
 </g>
</svg>
